# xmcd
#
# Track frame offsets:
#	150
#	12854
#	24147
#	37546
#	47828
#	57727
#	71949
#	82745
#	95822
#	107678
#	119452
#	130411
#	142201
#	153360
#	164631
#	172600
#	184943
#	199872
#	212021
#	222216
#	235801
#	245685
#	258056
#	269731
#	283527
#	294808
#	309608
#	318263
#	326367
#	338109
#
# Disc length: 4653 seconds
#
# Revision: 3806604413
# Processed by: cddbd v1.5.2PL0 Copyright (c) Steve Scherf et al.
# Submitted via: EZCDAudioConverter 8.5.0.1
#
DISCID=b6122b1e
DTITLE=V/A - Hillbillies In Hell: The Final Chapter
DYEAR=2017
DGENRE=Country
TTITLE0=Eddie Noack - Ain't The Reaping Ever Done
TTITLE1=Autry Inman - Six Rounds Of Love And Hate
TTITLE2=Anita Carter - Satan's Child
TTITLE3=Johnny Tyler - Devil's Slate
TTITLE4=G.M. Farley - The Devil's Train
TTITLE5=Harold Lee - Ten O'Clock Train
TTITLE6=Eddie Snell and His Midwestern Aces - I'm Going Down (For The 3rd Time)
TTITLE7=Ralph Hart and The Texas Musical Harts - Ain't No Grave Gonna Hold My Bo
TTITLE7=dy Down
TTITLE8=Leon Ashley - Laura (What's He Got That I Ain't Got)
TTITLE9=Freddie Hart - The Neon And The Rain
TTITLE10=Stringbean and His Banjo - Suicide Blues
TTITLE11=Hal Willis - Dig Me A Hole
TTITLE12=Steve Bledsoe - Bang, Bang You're Dead
TTITLE13=Wayland Chandler - Cold Cold Grave
TTITLE14=Ray Sanders - Graveyard Dance
TTITLE15=Red Belcher and The Kentucky Ridge Runners - I Ain't Gonna Let Old Sata
TTITLE15=n Turn Me 'Round
TTITLE16=Hugh X. Lewis - War Is Hell
TTITLE17=Tommy Dee - Story Of Susie
TTITLE18=Jimmie Pearson and The Melody Boys - Nobody Cares
TTITLE19=Olin Bingham - They Wouldn't Listen To A Kid
TTITLE20=Hoyt Scoggins and Choir - What's Gonna Happen (To This Old World)
TTITLE21=Bud Freeman - Please Tell The World (A Message From The Grave)
TTITLE22=Bill Anderson - Goodbye Cruel World
TTITLE23=Charlie Gore - Sin City
TTITLE24=Eddie Noack - Before You Use That Gun
TTITLE25=Eddie Miller and His Band - Ghost Town
TTITLE26=Lawton Williams - Satan's Bell
TTITLE27=Durwood Haddock - Funny Farm
TTITLE28=Sunshine Boys Quartet - The Devil Can't Harm A Praying Man
TTITLE29=David Ingles - (Satan Has Been) Paralyzed
EXTD=
EXTT0=
EXTT1=
EXTT2=
EXTT3=
EXTT4=
EXTT5=
EXTT6=
EXTT7=
EXTT8=
EXTT9=
EXTT10=
EXTT11=
EXTT12=
EXTT13=
EXTT14=
EXTT15=
EXTT16=
EXTT17=
EXTT18=
EXTT19=
EXTT20=
EXTT21=
EXTT22=
EXTT23=
EXTT24=
EXTT25=
EXTT26=
EXTT27=
EXTT28=
EXTT29=
PLAYORDER=
